<svg fill="white" height="36" viewBox="0 0 107 28" width="137" xmlns="http://www.w3.org/2000/svg" xmlns:xlink="http://www.w3.org/1999/xlink" class="h-100" alt="ADPList logo">
	<path d="M13.7623 0C11.0404 0 8.37959 0.807146 6.11639 2.31937C3.85319 3.83159 2.08924 5.98097 1.0476 8.49571C0.005963 11.0104 -0.266577 13.7776 0.264445 16.4472C0.795467 19.1168 2.1062 21.5691 4.0309 23.4937C5.95559 25.4184 8.4078 26.7292 11.0774 27.2602C13.7471 27.7912 16.5142 27.5187 19.0289 26.477C21.5437 25.4354 23.6931 23.6715 25.2053 21.4083C26.7175 19.1451 27.5246 16.4842 27.5246 13.7623C27.5246 10.1123 26.0747 6.61183 23.4938 4.03089C20.9128 1.44995 17.4123 0 13.7623 0ZM13.7623 25.4074C11.4592 25.4074 9.20771 24.7244 7.29269 23.4448C5.37767 22.1652 3.8851 20.3465 3.00371 18.2187C2.12233 16.0908 1.89172 13.7494 2.34104 11.4905C2.79037 9.23157 3.89945 7.15662 5.52804 5.52803C7.15663 3.89945 9.23158 2.79036 11.4905 2.34104C13.7494 1.89171 16.0908 2.12232 18.2187 3.00371C20.3465 3.88509 22.1652 5.37767 23.4448 7.29268C24.7244 9.2077 25.4074 11.4591 25.4074 13.7623C25.4074 16.8508 24.1805 19.8127 21.9966 21.9966C19.8127 24.1805 16.8508 25.4074 13.7623 25.4074Z" fill="var(--grey)">
	</path>
	<path d="M8.2475 13.4871C8.34592 13.5863 8.46301 13.6651 8.59201 13.7188C8.72102 13.7726 8.85939 13.8002 8.99914 13.8002C9.13889 13.8002 9.27726 13.7726 9.40627 13.7188C9.53527 13.6651 9.65236 13.5863 9.75077 13.4871L12.2386 10.9993C12.706 10.5251 12.9911 9.90114 13.0435 9.23735C13.0959 8.57357 12.9123 7.91259 12.5251 7.37093C12.1378 6.82928 11.5718 6.44172 10.9267 6.27659C10.2817 6.11146 9.59903 6.17935 8.99914 6.46829C8.39833 6.16152 7.70735 6.08063 7.05192 6.24033C6.3965 6.40004 5.82019 6.78972 5.42784 7.3385C5.03549 7.88727 4.85319 8.55865 4.91409 9.2305C4.975 9.90235 5.27506 10.53 5.7597 10.9993L8.2475 13.4871ZM7.25238 8.46912C7.31663 8.40187 7.39385 8.34834 7.47937 8.31177C7.56489 8.27519 7.65693 8.25634 7.74994 8.25634C7.84295 8.25634 7.935 8.27519 8.02052 8.31177C8.10604 8.34834 8.18325 8.40187 8.2475 8.46912C8.34592 8.56835 8.46301 8.64711 8.59201 8.70085C8.72102 8.7546 8.85939 8.78227 8.99914 8.78227C9.13889 8.78227 9.27726 8.7546 9.40627 8.70085C9.53527 8.64711 9.65236 8.56835 9.75077 8.46912C9.81578 8.40319 9.89324 8.35083 9.97866 8.31509C10.0641 8.27935 10.1557 8.26095 10.2483 8.26095C10.3409 8.26095 10.4326 8.27935 10.518 8.31509C10.6034 8.35083 10.6809 8.40319 10.7459 8.46912C10.8131 8.53337 10.8667 8.61059 10.9033 8.69611C10.9398 8.78163 10.9587 8.87367 10.9587 8.96669C10.9587 9.0597 10.9398 9.15174 10.9033 9.23726C10.8667 9.32278 10.8131 9.4 10.7459 9.46425L8.99914 11.2428L7.25238 9.52777C7.18513 9.46352 7.1316 9.3863 7.09502 9.30078C7.05845 9.21526 7.03959 9.12321 7.03959 9.0302C7.03959 8.93719 7.05845 8.84515 7.09502 8.75963C7.1316 8.67411 7.18513 8.59689 7.25238 8.53264V8.46912Z" fill="var(--grey)">
	</path>
	<path d="M17.7751 13.4871C17.8735 13.5863 17.9906 13.6651 18.1196 13.7188C18.2486 13.7726 18.387 13.8002 18.5267 13.8002C18.6665 13.8002 18.8049 13.7726 18.9339 13.7188C19.0629 13.6651 19.1799 13.5863 19.2784 13.4871L21.7662 10.9993C22.2336 10.5251 22.5187 9.90114 22.5711 9.23735C22.6235 8.57357 22.4399 7.91259 22.0527 7.37093C21.6654 6.82928 21.0994 6.44172 20.4543 6.27659C19.8093 6.11146 19.1266 6.17935 18.5267 6.46829C17.9259 6.16152 17.2349 6.08063 16.5795 6.24033C15.9241 6.40004 15.3478 6.78972 14.9554 7.3385C14.5631 7.88727 14.3808 8.55865 14.4417 9.2305C14.5026 9.90235 14.8027 10.53 15.2873 10.9993L17.7751 13.4871ZM16.78 8.46912C16.8442 8.40187 16.9214 8.34834 17.007 8.31177C17.0925 8.27519 17.1845 8.25634 17.2775 8.25634C17.3705 8.25634 17.4626 8.27519 17.5481 8.31177C17.6336 8.34834 17.7108 8.40187 17.7751 8.46912C17.8735 8.56835 17.9906 8.64711 18.1196 8.70085C18.2486 8.7546 18.387 8.78227 18.5267 8.78227C18.6665 8.78227 18.8049 8.7546 18.9339 8.70085C19.0629 8.64711 19.1799 8.56835 19.2784 8.46912C19.3434 8.40319 19.4208 8.35083 19.5062 8.31509C19.5917 8.27935 19.6833 8.26095 19.7759 8.26095C19.8685 8.26095 19.9602 8.27935 20.0456 8.31509C20.131 8.35083 20.2085 8.40319 20.2735 8.46912C20.3407 8.53337 20.3943 8.61059 20.4308 8.69611C20.4674 8.78163 20.4863 8.87367 20.4863 8.96669C20.4863 9.0597 20.4674 9.15174 20.4308 9.23726C20.3943 9.32278 20.3407 9.4 20.2735 9.46425L18.5267 11.2428L16.78 9.52777C16.7127 9.46352 16.6592 9.3863 16.6226 9.30078C16.586 9.21526 16.5672 9.12321 16.5672 9.0302C16.5672 8.93719 16.586 8.84515 16.6226 8.75963C16.6592 8.67411 16.7127 8.59689 16.78 8.53264V8.46912Z" fill="var(--grey)">
	</path>
	<path d="M21.1728 14.821C20.892 14.821 20.6228 14.9326 20.4242 15.1311C20.2257 15.3296 20.1142 15.5989 20.1142 15.8797C20.1142 18.8015 17.2664 21.1729 13.7623 21.1729C10.2582 21.1729 7.41049 18.8015 7.41049 15.8797C7.41049 15.5989 7.29896 15.3296 7.10042 15.1311C6.90189 14.9326 6.63262 14.821 6.35185 14.821C6.07108 14.821 5.80182 14.9326 5.60328 15.1311C5.40475 15.3296 5.29321 15.5989 5.29321 15.8797C5.29321 19.966 9.09373 23.2902 13.7623 23.2902C18.4309 23.2902 22.2315 19.966 22.2315 15.8797C22.2315 15.5989 22.1199 15.3296 21.9214 15.1311C21.7229 14.9326 21.4536 14.821 21.1728 14.821Z" fill="var(--grey)">
	</path>
	<path d="M42.9309 18.1191H37.1207L35.9304 21.4164H32.9849L38.4724 6.98559H41.7003L47.1474 21.4164H44.1212L42.9309 18.1191ZM38.0487 15.5545H42.0029L40.0258 10.0997L38.0487 15.5545Z" fill="var(--grey)">
	</path>
	<path d="M53.9801 18.8112C54.5585 18.8112 55.1099 18.723 55.6345 18.5466C56.159 18.3566 56.6163 18.0716 57.0063 17.6917C57.3964 17.3118 57.7057 16.8368 57.9344 16.2669C58.163 15.6835 58.2773 14.9982 58.2773 14.2112C58.2773 13.4242 58.163 12.7457 57.9344 12.1758C57.7057 11.5923 57.3964 11.1106 57.0063 10.7307C56.6297 10.3508 56.1792 10.0658 55.6546 9.87583C55.1301 9.68586 54.5787 9.59088 54.0003 9.59088H51.7609V18.8112H53.9801ZM48.9768 21.4164V6.98559H54.1012C55.1234 6.98559 56.0648 7.14842 56.9256 7.47408C57.7864 7.79974 58.5261 8.27466 59.1448 8.89885C59.777 9.50946 60.2679 10.2626 60.6176 11.1581C60.9807 12.0537 61.1623 13.0714 61.1623 14.2112C61.1623 15.351 60.9807 16.3687 60.6176 17.2643C60.2679 18.1598 59.777 18.9129 59.1448 19.5235C58.5127 20.1342 57.7662 20.6023 56.9055 20.928C56.0447 21.2536 55.1032 21.4164 54.081 21.4164H48.9768Z" fill="var(--grey)">
	</path>
	<path d="M68.5791 13.5599C69.2785 13.5599 69.8232 13.3767 70.2133 13.0103C70.6168 12.6304 70.8185 12.1283 70.8185 11.5041C70.8185 10.8528 70.6168 10.344 70.2133 9.9776C69.8232 9.61123 69.2785 9.42805 68.5791 9.42805H66.3801V13.5599H68.5791ZM66.3599 15.982V21.4164H63.5758V6.98559H68.9221C69.6215 6.98559 70.2603 7.10093 70.8387 7.3316C71.417 7.54871 71.9147 7.8608 72.3316 8.26788C72.7485 8.66139 73.0646 9.13631 73.2798 9.69265C73.5085 10.2354 73.6228 10.8325 73.6228 11.4838C73.6228 12.1351 73.5085 12.7389 73.2798 13.2953C73.0646 13.8516 72.7485 14.3265 72.3316 14.72C71.9147 15.1135 71.417 15.4256 70.8387 15.6563C70.2603 15.8734 69.6215 15.982 68.9221 15.982H66.3599Z" fill="var(--grey)">
	</path>
	<path d="M75.7515 21.4164V6.98559H78.5356V18.7297H84.9108V21.4164H75.7515Z" fill="var(--grey)">
	</path>
	<path d="M86.8389 21.4164V11.4024H89.5221V21.4164H86.8389ZM86.5161 8.1254C86.5161 7.65048 86.6775 7.25019 87.0003 6.92453C87.3231 6.59887 87.7131 6.43604 88.1704 6.43604C88.6411 6.43604 89.0312 6.59887 89.3405 6.92453C89.6633 7.25019 89.8247 7.65048 89.8247 8.1254C89.8247 8.57319 89.6633 8.95991 89.3405 9.28557C89.0312 9.61123 88.6411 9.77406 88.1704 9.77406C87.7131 9.77406 87.3231 9.61123 87.0003 9.28557C86.6775 8.95991 86.5161 8.57319 86.5161 8.1254Z" fill="var(--grey)">
	</path>
	<path d="M93.8473 18.1191C93.8742 18.5126 94.0356 18.8654 94.3315 19.1775C94.6274 19.4896 95.0713 19.6457 95.663 19.6457C96.1069 19.6457 96.4364 19.5507 96.6516 19.3607C96.8668 19.1572 96.9744 18.9197 96.9744 18.6483C96.9744 18.4176 96.8937 18.2209 96.7323 18.0581C96.5709 17.8817 96.2952 17.7528 95.9051 17.6713L94.5938 17.366C93.6254 17.1489 92.9193 16.7758 92.4755 16.2466C92.0316 15.7038 91.8097 15.0796 91.8097 14.374C91.8097 13.9262 91.9038 13.5056 92.0921 13.1121C92.2804 12.705 92.536 12.359 92.8588 12.074C93.195 11.7755 93.5851 11.5381 94.0289 11.3617C94.4862 11.1853 94.9838 11.0971 95.5218 11.0971C96.2212 11.0971 96.813 11.1988 97.2972 11.4024C97.7814 11.5923 98.1714 11.8366 98.4673 12.1351C98.7767 12.4336 99.0053 12.7525 99.1533 13.0917C99.3012 13.4174 99.3886 13.7159 99.4155 13.9873L97.1761 14.4961C97.1492 14.3469 97.1022 14.1976 97.0349 14.0484C96.9811 13.8855 96.887 13.7363 96.7525 13.6006C96.618 13.4649 96.4499 13.3563 96.2481 13.2749C96.0598 13.1935 95.8244 13.1528 95.542 13.1528C95.1923 13.1528 94.8897 13.2478 94.6341 13.4377C94.392 13.6277 94.271 13.8652 94.271 14.1501C94.271 14.3944 94.3517 14.5911 94.5131 14.7404C94.6879 14.8897 94.9099 14.9914 95.1789 15.0457L96.5911 15.351C97.5729 15.5545 98.3059 15.9345 98.7901 16.4908C99.2878 17.0472 99.5366 17.6917 99.5366 18.4244C99.5366 18.8315 99.4559 19.2318 99.2945 19.6253C99.1465 20.0188 98.9111 20.3716 98.5884 20.6837C98.2656 20.9958 97.8621 21.2468 97.3779 21.4368C96.8937 21.6268 96.3288 21.7217 95.6832 21.7217C94.93 21.7217 94.2979 21.6132 93.7868 21.3961C93.2757 21.179 92.8588 20.9144 92.536 20.6023C92.2132 20.2902 91.9711 19.9578 91.8097 19.605C91.6617 19.2386 91.5743 18.9129 91.5474 18.628L93.8473 18.1191Z" fill="var(--grey)">
	</path>
	<path d="M105.003 11.4024H107V13.8041H105.003V17.997C105.003 18.4312 105.097 18.7365 105.285 18.9129C105.487 19.0758 105.783 19.1572 106.173 19.1572C106.334 19.1572 106.496 19.1504 106.657 19.1368C106.818 19.1232 106.933 19.1029 107 19.0758V21.3147C106.879 21.3689 106.691 21.4232 106.435 21.4775C106.193 21.5318 105.877 21.5589 105.487 21.5589C104.518 21.5589 103.752 21.2875 103.187 20.7448C102.622 20.202 102.34 19.4421 102.34 18.4651V13.8041H100.544V11.4024H101.048C101.573 11.4024 101.956 11.2531 102.198 10.9546C102.454 10.6425 102.582 10.2626 102.582 9.81477V8.41036H105.003V11.4024Z" fill="var(--grey)">
	</path>
</svg>
