<svg width="98" height="29" viewBox="0 0 98 29" fill="none" xmlns="http://www.w3.org/2000/svg">
<path d="M6.89748 24.1056C6.91433 23.2339 6.88434 22.5246 6.80748 21.9776C6.74552 21.4365 6.60358 20.9671 6.38163 20.5695C6.15969 20.1719 5.81875 19.7704 5.35879 19.3649C4.90472 18.9446 4.30889 18.4252 3.57131 17.8068C2.85177 17.23 2.19772 16.6618 1.60915 16.1023C1.02057 15.5427 0.579439 15.0242 0.285741 14.5466C-0.00207526 14.0541 -0.0724616 13.6216 0.0745821 13.249C0.20398 12.9212 0.518459 12.7354 1.01802 12.6914C1.52346 12.6326 2.10399 12.7326 2.75962 12.9914C3.53444 13.2973 4.26222 13.7223 4.94294 14.2666C5.62954 14.7959 6.22281 15.409 6.72277 16.1058C7.2286 16.7877 7.58582 17.497 7.79443 18.2338L7.24919 18.0444C7.48132 17.4127 7.81325 16.8118 8.24497 16.2417C8.69748 15.6625 9.20978 15.15 9.78188 14.7042C10.3599 14.2434 10.9486 13.8644 11.5482 13.5672C12.1477 13.27 12.7165 13.0726 13.2545 12.9749C13.7983 12.8624 14.2565 12.8796 14.6291 13.0267C15.1655 13.2384 15.3131 13.6497 15.072 14.2607C14.8014 14.9461 14.373 15.595 13.7868 16.2075C13.2006 16.82 12.461 17.4064 11.5682 17.9668C10.711 18.524 10.0085 19.082 9.46075 19.6407C8.93374 20.1905 8.56437 20.7336 8.35262 21.27C8.28792 21.4339 8.21911 21.6737 8.14617 21.9893C8.09402 22.296 8.04795 22.6309 8.00795 22.994C7.98286 23.3629 7.96816 23.7274 7.96384 24.0874L6.89748 24.1056ZM6.88748 24.8508L6.92862 13.2937L8.0891 13.3643L7.99855 24.8502L6.88748 24.8508ZM6.35338 13.3767C5.72756 13.1296 5.21271 12.7542 4.80883 12.2503C4.41984 11.7523 4.17634 11.1912 4.0783 10.5669C3.98616 9.92778 4.0636 9.29529 4.31063 8.66947C4.55766 8.04365 4.93018 7.53625 5.42817 7.14726C5.92616 6.75828 6.48728 6.51477 7.11153 6.41674C7.75657 6.30969 8.39199 6.37968 9.01782 6.62672C9.64364 6.87375 10.1481 7.25371 10.5312 7.7666C10.9351 8.27047 11.186 8.83454 11.2841 9.45879C11.3821 10.083 11.3076 10.7081 11.0606 11.3339C10.8135 11.9597 10.4381 12.4746 9.93421 12.8785C9.43622 13.2674 8.86765 13.508 8.2285 13.6002C7.60424 13.6982 6.97921 13.6237 6.35338 13.3767ZM7.08566 11.5215C7.36877 11.6333 7.64855 11.6662 7.92499 11.6204C8.20732 11.5596 8.45965 11.4439 8.68198 11.2733C8.91921 11.1086 9.0937 10.8847 9.20545 10.6016C9.31721 10.3185 9.34269 10.0358 9.28191 9.75347C9.23604 9.47703 9.12781 9.22764 8.95724 9.00531C8.79255 8.76808 8.56865 8.59359 8.28554 8.48183C8.00243 8.37008 7.71971 8.34459 7.43739 8.40537C7.16094 8.45125 6.9041 8.55654 6.66687 8.72123C6.44454 8.8918 6.2775 9.11864 6.16575 9.40175C6.05399 9.68486 6.02106 9.96464 6.06693 10.2411C6.12771 10.5234 6.24045 10.7832 6.40514 11.0204C6.57571 11.2427 6.80255 11.4098 7.08566 11.5215Z" fill="url(#paint0_linear_67_252)"/>
<path d="M22.0993 23V5.52431H26.3231V12.5385H33.2093V5.52431H37.4246V23H33.2093V15.9773H26.3231V23H22.0993ZM43.769 23.2219C42.9327 23.2219 42.1903 23.0825 41.5418 22.8037C40.899 22.5193 40.3899 22.0927 40.0144 21.5238C39.6447 20.9492 39.4598 20.2296 39.4598 19.3649C39.4598 18.6368 39.5878 18.0224 39.8438 17.5218C40.0997 17.0212 40.4524 16.6144 40.9019 16.3016C41.3513 15.9887 41.8689 15.7526 42.4549 15.5933C43.0408 15.4283 43.6666 15.3174 44.3321 15.2605C45.0774 15.1923 45.6775 15.1211 46.1326 15.0472C46.5877 14.9676 46.9177 14.8566 47.1224 14.7144C47.3329 14.5665 47.4382 14.3589 47.4382 14.0915V14.0488C47.4382 13.6108 47.2874 13.2723 46.9859 13.0334C46.6844 12.7945 46.2777 12.675 45.7657 12.675C45.2139 12.675 44.7702 12.7945 44.4345 13.0334C44.0989 13.2723 43.8856 13.6023 43.7946 14.0232L39.9462 13.8867C40.0599 13.0903 40.3529 12.3792 40.8251 11.7534C41.3029 11.122 41.9571 10.6271 42.7877 10.2687C43.6239 9.90461 44.628 9.72257 45.7998 9.72257C46.6361 9.72257 47.4069 9.82212 48.1123 10.0212C48.8177 10.2146 49.4321 10.4991 49.9554 10.8745C50.4788 11.2443 50.8827 11.6994 51.1671 12.2398C51.4572 12.7802 51.6023 13.3975 51.6023 14.0915V23H47.6771V21.1739H47.5747C47.3415 21.6176 47.0428 21.9931 46.6787 22.3003C46.3203 22.6075 45.8965 22.8379 45.4073 22.9915C44.9238 23.1451 44.3777 23.2219 43.769 23.2219ZM45.0575 20.4913C45.5069 20.4913 45.9108 20.4003 46.2691 20.2182C46.6332 20.0362 46.9233 19.7859 47.1395 19.4673C47.3557 19.1431 47.4638 18.7676 47.4638 18.341V17.0951C47.3443 17.1577 47.1992 17.2146 47.0286 17.2658C46.8636 17.317 46.6816 17.3653 46.4825 17.4109C46.2834 17.4564 46.0786 17.4962 45.8681 17.5303C45.6576 17.5644 45.4557 17.5957 45.2622 17.6242C44.8697 17.6868 44.5341 17.7835 44.2553 17.9143C43.9823 18.0451 43.7718 18.2158 43.6239 18.4263C43.4817 18.6311 43.4106 18.8757 43.4106 19.1601C43.4106 19.5925 43.5642 19.9224 43.8714 20.15C44.1842 20.3775 44.5796 20.4913 45.0575 20.4913ZM58.3263 15.525V23H54.1537V9.89323H58.1216V12.2996H58.2666C58.5567 11.4974 59.0517 10.8688 59.7514 10.4137C60.4511 9.95296 61.2845 9.72257 62.2516 9.72257C63.1731 9.72257 63.9724 9.93021 64.6493 10.3455C65.332 10.7551 65.861 11.3296 66.2365 12.0692C66.6176 12.803 66.8054 13.662 66.7997 14.6461V23H62.627V15.4653C62.6327 14.7372 62.4478 14.1683 62.0724 13.7587C61.7026 13.3491 61.1878 13.1443 60.5279 13.1443C60.0898 13.1443 59.703 13.241 59.3674 13.4344C59.0374 13.6222 58.7814 13.8924 58.5994 14.2451C58.4231 14.5978 58.332 15.0244 58.3263 15.525ZM73.0779 23.2219C72.2416 23.2219 71.4992 23.0825 70.8507 22.8037C70.2079 22.5193 69.6988 22.0927 69.3233 21.5238C68.9536 20.9492 68.7687 20.2296 68.7687 19.3649C68.7687 18.6368 68.8967 18.0224 69.1527 17.5218C69.4086 17.0212 69.7613 16.6144 70.2108 16.3016C70.6602 15.9887 71.1778 15.7526 71.7638 15.5933C72.3497 15.4283 72.9755 15.3174 73.641 15.2605C74.3863 15.1923 74.9864 15.1211 75.4415 15.0472C75.8966 14.9676 76.2266 14.8566 76.4313 14.7144C76.6418 14.5665 76.7471 14.3589 76.7471 14.0915V14.0488C76.7471 13.6108 76.5963 13.2723 76.2948 13.0334C75.9933 12.7945 75.5866 12.675 75.0746 12.675C74.5228 12.675 74.0791 12.7945 73.7434 13.0334C73.4078 13.2723 73.1945 13.6023 73.1035 14.0232L69.2551 13.8867C69.3688 13.0903 69.6618 12.3792 70.134 11.7534C70.6118 11.122 71.266 10.6271 72.0966 10.2687C72.9328 9.90461 73.9369 9.72257 75.1087 9.72257C75.945 9.72257 76.7158 9.82212 77.4212 10.0212C78.1266 10.2146 78.741 10.4991 79.2643 10.8745C79.7877 11.2443 80.1916 11.6994 80.476 12.2398C80.7661 12.7802 80.9112 13.3975 80.9112 14.0915V23H76.986V21.1739H76.8836C76.6504 21.6176 76.3517 21.9931 75.9876 22.3003C75.6292 22.6075 75.2054 22.8379 74.7162 22.9915C74.2327 23.1451 73.6866 23.2219 73.0779 23.2219ZM74.3664 20.4913C74.8158 20.4913 75.2197 20.4003 75.578 20.2182C75.9421 20.0362 76.2322 19.7859 76.4484 19.4673C76.6646 19.1431 76.7727 18.7676 76.7727 18.341V17.0951C76.6532 17.1577 76.5081 17.2146 76.3375 17.2658C76.1725 17.317 75.9905 17.3653 75.7914 17.4109C75.5923 17.4564 75.3875 17.4962 75.177 17.5303C74.9665 17.5644 74.7646 17.5957 74.5711 17.6242C74.1786 17.6868 73.843 17.7835 73.5642 17.9143C73.2912 18.0451 73.0807 18.2158 72.9328 18.4263C72.7906 18.6311 72.7195 18.8757 72.7195 19.1601C72.7195 19.5925 72.8731 19.9224 73.1803 20.15C73.4931 20.3775 73.8885 20.4913 74.3664 20.4913Z" fill="#C7CDE1"/>
<path d="M84.0007 23.0613C83.827 23.0613 83.6779 22.9991 83.5535 22.8747C83.4291 22.7503 83.3669 22.6013 83.3669 22.4276C83.3669 22.2539 83.4291 22.1048 83.5535 21.9804C83.6779 21.856 83.827 21.7938 84.0007 21.7938C84.1744 21.7938 84.3234 21.856 84.4478 21.9804C84.5723 22.1048 84.6345 22.2539 84.6345 22.4276C84.6345 22.5426 84.6051 22.6482 84.5464 22.7445C84.4901 22.8407 84.4138 22.9182 84.3176 22.9768C84.2237 23.0332 84.118 23.0613 84.0007 23.0613ZM88.9987 15.794H89.872V20.9487C89.872 21.4088 89.7874 21.7996 89.6184 22.1212C89.4494 22.4428 89.2112 22.6869 88.9037 22.8536C88.5962 23.0203 88.2335 23.1036 87.8157 23.1036C87.4213 23.1036 87.0704 23.032 86.7629 22.8888C86.4554 22.7433 86.2136 22.5367 86.0376 22.2691C85.8615 22.0015 85.7735 21.6835 85.7735 21.3149H86.6326C86.6326 21.5191 86.6831 21.6975 86.784 21.8501C86.8873 22.0003 87.0282 22.1177 87.2066 22.2022C87.385 22.2867 87.588 22.329 87.8157 22.329C88.0669 22.329 88.2805 22.2762 88.4565 22.1705C88.6326 22.0649 88.7664 21.91 88.8579 21.7058C88.9518 21.4992 88.9987 21.2469 88.9987 20.9487V15.794ZM95.5654 17.5967C95.5232 17.2399 95.3518 16.963 95.0513 16.7658C94.7509 16.5686 94.3824 16.47 93.9458 16.47C93.6265 16.47 93.3472 16.5217 93.1078 16.6249C92.8707 16.7282 92.6852 16.8702 92.5514 17.051C92.42 17.2317 92.3543 17.4371 92.3543 17.6672C92.3543 17.8596 92.4 18.0251 92.4916 18.1636C92.5855 18.2998 92.7052 18.4136 92.8507 18.5052C92.9963 18.5944 93.1488 18.6683 93.3085 18.727C93.4681 18.7833 93.6148 18.8291 93.7486 18.8643L94.4809 19.0615C94.6687 19.1108 94.8776 19.1788 95.1077 19.2657C95.3401 19.3526 95.5619 19.4711 95.7732 19.6213C95.9868 19.7692 96.1628 19.9593 96.3013 20.1917C96.4398 20.4241 96.509 20.7093 96.509 21.0473C96.509 21.437 96.4069 21.7891 96.2027 22.1036C96.0008 22.4182 95.7051 22.6682 95.3154 22.8536C94.9281 23.039 94.4575 23.1318 93.9035 23.1318C93.3871 23.1318 92.9399 23.0484 92.562 22.8818C92.1864 22.7151 91.8907 22.4827 91.6747 22.1846C91.4611 21.8865 91.3402 21.5403 91.312 21.1459H92.2134C92.2369 21.4182 92.3284 21.6436 92.4881 21.8219C92.65 21.998 92.8542 22.1294 93.1007 22.2163C93.3495 22.3008 93.6171 22.3431 93.9035 22.3431C94.2368 22.3431 94.5361 22.2891 94.8014 22.1811C95.0666 22.0708 95.2767 21.9182 95.4316 21.7234C95.5865 21.5262 95.664 21.2961 95.664 21.0332C95.664 20.7938 95.5971 20.599 95.4633 20.4488C95.3295 20.2985 95.1535 20.1765 94.9352 20.0826C94.7169 19.9887 94.4809 19.9065 94.2274 19.8361L93.3401 19.5826C92.7768 19.4206 92.3308 19.1894 92.0022 18.889C91.6735 18.5885 91.5092 18.1953 91.5092 17.7094C91.5092 17.3057 91.6184 16.9536 91.8367 16.6531C92.0573 16.3503 92.3531 16.1156 92.724 15.9489C93.0972 15.7799 93.5138 15.6954 93.9739 15.6954C94.4387 15.6954 94.8518 15.7787 95.2133 15.9454C95.5748 16.1097 95.8612 16.3351 96.0724 16.6214C96.286 16.9078 96.3987 17.2329 96.4105 17.5967H95.5654Z" fill="#C7CDE1"/>
<defs>
<linearGradient id="paint0_linear_67_252" x1="1.27364" y1="9.55229" x2="13.3732" y2="22.9255" gradientUnits="userSpaceOnUse">
<stop stop-color="#8195D9"/>
<stop offset="1" stop-color="#4667BE" stop-opacity="0.98"/>
</linearGradient>
</defs>
</svg>
