<svg xmlns="http://www.w3.org/2000/svg"  height="60" width="150" viewBox="0 0 208 40" fill="#fff">
	<g clip-path="url(#clip0_6088_3827)">
		<path d="M191.149 7.03613H195.041V21.0907H195.329C196.661 21.0907 197.91 20.4435 198.68 19.3568L202.69 13.6847H207.204L200.625 22.5732L207.204 31.7715H202.416L198.504 25.9307C197.848 24.9527 196.749 24.3655 195.571 24.3655H195.042V31.7715H191.151V7.03613H191.149Z" fill="#fff">
		</path>
		<path d="M113.608 13.333C108.991 13.333 105.305 17.5356 105.305 22.7714C105.305 28.0072 108.957 32.1076 113.47 32.1076C115.191 32.2082 117.406 31.222 118.809 29.7606V31.7637H122.702V22.7357C122.702 13.9185 117.598 13.333 113.608 13.333ZM114.159 28.8003C110.956 28.8003 109.543 27.3876 109.543 24.1501V21.2565C109.543 18.7391 111.583 16.6873 114.102 16.6759C117.38 16.6597 118.809 18.0352 118.809 21.2565V27.0551C118.154 27.6698 116.604 28.8166 114.159 28.8003Z" fill="#fff">
		</path>
		<path d="M157.149 13.333C152.532 13.333 148.846 17.5356 148.846 22.7714C148.846 28.0072 152.498 32.1076 157.011 32.1076C158.732 32.2082 160.947 31.222 162.35 29.7606V31.7637H166.243V22.7357C166.243 13.9185 161.139 13.333 157.149 13.333ZM157.7 28.8003C154.497 28.8003 153.084 27.3876 153.084 24.1501V21.2565C153.084 18.7391 155.124 16.6873 157.643 16.6759C160.921 16.6597 162.35 18.0352 162.35 21.2565V27.0551C161.695 27.6698 160.145 28.8166 157.7 28.8003Z" fill="#fff">
		</path>
		<path d="M100.997 28.6005C100.205 28.6005 99.7561 28.1529 99.7561 27.3954V7.03613H95.8633V26.8439C95.8633 29.8414 98.2752 32.1138 101.547 32.1138H103.613V28.6005H100.995H100.997Z" fill="#fff">
		</path>
		<path d="M180.194 13.3408C180.093 13.3408 179.972 13.3408 179.839 13.3408H177.662C176.694 13.3408 175.729 13.6117 174.947 14.1859C174.501 14.5135 174.269 14.8022 174.269 14.8022V13.3408H173.399C173.39 13.3408 173.382 13.3424 173.372 13.3424H170.754V16.8557H170.775C170.769 16.8654 170.76 16.8735 170.754 16.8833V31.7732H174.647V20.437C174.647 17.8532 175.888 16.7162 178.781 16.7162C181.675 16.7162 182.744 17.8175 182.744 20.2651V31.7715H186.636V20.4711C186.636 16.3366 183.881 13.3408 180.196 13.3408H180.194Z" fill="#fff">
		</path>
		<path d="M87.2183 13.6846V25.0872C87.2183 27.6013 85.9775 28.7042 83.2899 28.7042C80.6022 28.7042 79.6047 27.6353 79.6047 25.191V13.6846H75.7119V24.6752C75.7119 29.0854 78.4677 32.1153 82.4983 32.1153C84.3977 32.1153 86.0213 31.3254 87.2102 29.9288C87.3611 36.0178 86.3538 36.5693 79.4279 36.4849V39.9982H82.1885C89.1436 39.9982 90.8338 34.8597 91.0495 30.203L91.0787 30.19V13.6846H87.22H87.2183Z" fill="#fff">
		</path>
		<path d="M141.096 18.9902C143.302 17.8175 144.714 15.8209 144.714 13.7187C144.714 9.86165 141.2 7.03613 136.445 7.03613H127.73V31.7699H136.859C141.751 31.7699 145.473 28.6346 145.473 24.5358C145.473 22.192 143.749 20.0575 141.097 18.9902H141.096ZM131.691 10.4812H136.653C139.029 10.4812 140.578 11.5485 140.578 13.2711V14.6482C140.578 16.3026 139.063 17.3699 136.653 17.3699H131.691V10.4796V10.4812ZM141.337 25.2609C141.337 27.1213 139.651 28.3264 137.031 28.3264H131.69V20.7825H137.031C139.649 20.7825 141.337 21.9877 141.337 23.7443V25.2609Z" fill="#fff">
		</path>
		<path d="M71.2009 7.03809V31.7167C69.66 31.7167 67.5141 31.7719 66.1954 31.7719C63.1752 31.7719 62.3561 29.2189 62.215 28.7842L57.0035 13.3055C56.9338 13.0589 56.8673 12.8254 56.8008 12.6048C56.465 11.471 56.1617 10.7135 55.7092 10.7135V31.7719H51.8164V7.03809H57.5453C58.4504 7.03809 59.2533 7.62038 59.529 8.48328L66.0883 28.1208C66.2927 28.7485 66.7355 29.0534 67.3405 28.9593V7.03809H71.1992H71.2009Z" fill="#fff">
		</path>
		<path d="M34.3263 0.00124392V13.3048C34.3263 13.4606 34.1511 13.5514 34.0246 13.4606L15.9296 0.650042C14.7877 -0.162578 13.2744 -0.219347 12.0741 0.507306L1.69661 6.78118C0.643932 7.417 0 8.55889 0 9.78998V39.1205H6.09383V8.24584C6.09383 5.26462 9.46271 3.52584 11.8908 5.25651L31.2558 19.0418C33.1811 20.4124 34.3246 22.6313 34.3246 24.9946V30.8743C34.3246 33.8555 30.959 35.5943 28.5276 33.8636L12.5121 22.474V29.9611L24.4937 38.4733C25.6356 39.2811 27.1489 39.3378 28.3476 38.6112L38.7251 32.3373C39.7778 31.7015 40.4217 30.5629 40.4217 29.3318V0.00124392H34.323H34.3263Z" fill="#fff">
		</path>
	</g>
	<defs>
		<clipPath id="clip0_6088_3827">
			<rect width="207.202" height="40" fill="#fff">
			</rect>
		</clipPath>
	</defs>
</svg>
